<svg version="1.1" id="Layer_1" xmlns="http://www.w3.org/2000/svg" xmlns:xlink="http://www.w3.org/1999/xlink" x="0px" y="0px"
	 width="100%" viewBox="0 0 1600 1600" enable-background="new 0 0 1600 1600" xml:space="preserve">
<path fill="#000000" opacity="0" stroke="none" 
	d="
M1601.000000,582.000000 
	C1601.000000,921.999939 1601.000000,1261.499878 1601.000000,1600.999756 
	C1067.666870,1600.999878 534.333862,1600.999878 1.000585,1601.000000 
	C1.000390,1067.667114 1.000390,534.334167 1.000195,1.000943 
	C534.332764,1.000629 1067.665527,1.000629 1600.999146,1.000314 
	C1601.000000,194.500000 1601.000000,388.000000 1601.000000,582.000000 
M727.501221,1452.994873 
	C738.956116,1461.160767 750.081726,1469.846802 761.949341,1477.360718 
	C776.718018,1486.711304 791.689819,1495.916992 807.316345,1503.693237 
	C828.368958,1514.169800 850.348022,1522.682007 873.700867,1526.712402 
	C887.853760,1529.155273 902.063782,1531.797119 916.356018,1532.778687 
	C938.249207,1534.282349 960.200195,1532.922974 981.775269,1528.826172 
	C996.511719,1526.028076 1011.238831,1522.594727 1025.481323,1517.947510 
	C1039.452637,1513.388794 1053.109375,1507.561035 1066.344971,1501.137817 
	C1079.563965,1494.722778 1092.226929,1487.107056 1104.835693,1479.522461 
	C1108.589844,1477.263916 1111.069702,1477.167969 1114.364502,1479.832764 
	C1128.276245,1491.084106 1144.173584,1498.970093 1161.046509,1504.246704 
	C1175.953247,1508.908569 1191.536133,1511.367432 1206.728394,1515.167480 
	C1225.615601,1519.891846 1244.944824,1518.957031 1264.094238,1519.759277 
	C1276.127808,1520.263306 1288.324097,1519.300781 1300.313477,1517.872559 
	C1318.006348,1515.764648 1335.796387,1513.618896 1353.146851,1509.718140 
	C1372.606445,1505.343140 1391.974854,1499.971191 1410.721436,1493.201294 
	C1426.033203,1487.671631 1440.614136,1479.908936 1455.084717,1472.309204 
	C1476.210205,1461.214722 1495.089722,1447.021118 1510.712646,1428.773682 
	C1521.798584,1415.825562 1530.499268,1401.728760 1533.719727,1384.604614 
	C1536.148438,1371.690674 1534.969604,1359.269409 1530.525024,1347.019775 
	C1524.886230,1331.478882 1514.781494,1319.035278 1502.526733,1308.463379 
	C1487.534180,1295.529663 1470.473999,1285.776978 1451.868164,1278.889404 
	C1444.282593,1276.081299 1436.673950,1273.250854 1428.897095,1271.066895 
	C1420.334473,1268.662231 1411.576294,1266.945312 1402.884399,1265.013672 
	C1397.639526,1263.848022 1392.358643,1262.843994 1386.504150,1261.646851 
	C1389.214600,1256.309570 1391.782471,1251.898682 1393.765747,1247.238770 
	C1403.707397,1223.878906 1412.247559,1200.073364 1415.217407,1174.659180 
	C1416.636719,1162.512695 1418.412476,1150.350464 1418.791260,1138.156982 
	C1419.113770,1127.772949 1417.986572,1117.301025 1416.923950,1106.927246 
	C1415.476807,1092.797363 1414.477051,1078.505859 1411.455444,1064.683716 
	C1408.078125,1049.233521 1403.164551,1034.054565 1398.002441,1019.073669 
	C1389.835083,995.371094 1376.736572,974.619690 1358.634521,957.088379 
	C1347.357910,946.167236 1334.223755,938.270142 1319.532227,933.165222 
	C1304.614014,927.981567 1289.226196,927.094910 1273.450684,928.848572 
	C1255.875488,930.802368 1240.424805,937.841431 1224.861450,946.598572 
	C1200.795166,913.754272 1172.045166,884.969421 1141.071289,858.684753 
	C1145.835083,849.860596 1151.152100,841.905151 1154.615356,833.211243 
	C1162.384888,813.707031 1169.736938,794.002075 1176.316284,774.067688 
	C1182.987427,753.854736 1189.442261,733.480347 1194.247559,712.771912 
	C1197.661865,698.058167 1199.453369,682.688660 1199.641846,667.582825 
	C1199.836548,651.979187 1198.177368,636.347961 1194.405396,620.863831 
	C1189.558228,600.966125 1182.075317,582.380981 1170.755859,565.561707 
	C1159.961548,549.522827 1146.394165,535.868103 1130.207642,524.999695 
	C1129.320679,524.404175 1128.594849,522.600586 1128.792480,521.546509 
	C1129.306763,518.803589 1130.525513,516.201660 1131.199951,513.478271 
	C1134.178101,501.452576 1138.232178,489.542053 1139.675415,477.327332 
	C1141.335693,463.276367 1140.795776,448.950165 1140.916260,434.740967 
	C1140.956787,429.969788 1140.445190,425.125793 1139.577759,420.427368 
	C1136.519897,403.866608 1131.481445,388.070496 1121.623901,374.066711 
	C1114.932739,364.561066 1107.093018,356.178528 1096.746338,351.009216 
	C1087.169922,346.224731 1079.850708,340.392853 1078.679688,329.114227 
	C1082.402710,326.291870 1086.222290,323.646667 1089.727417,320.635468 
	C1091.530884,319.086212 1094.662842,317.460693 1091.695801,314.213531 
	C1089.287842,311.578339 1086.883301,311.148987 1083.895386,313.527405 
	C1080.836182,315.962585 1077.482544,318.027985 1073.919800,320.488708 
	C1072.708252,318.220154 1071.873291,316.630249 1071.014526,315.053314 
	C1066.020752,305.883362 1061.607422,296.331818 1055.896362,287.632385 
	C1045.543701,271.862152 1034.395508,256.614838 1023.659729,241.093658 
	C1022.926758,240.033844 1022.633972,238.528107 1022.537598,237.200638 
	C1022.365967,234.837631 1023.441528,231.497803 1022.257324,230.331573 
	C1020.943604,229.037857 1017.683777,229.720169 1013.786377,229.432449 
	C1012.375000,227.771637 1010.139160,224.650879 1007.423889,222.026245 
	C991.836243,206.959488 976.822510,191.198074 960.306396,177.217056 
	C937.168884,157.630951 911.819702,140.850449 884.760254,127.180336 
	C864.699585,117.045952 843.902283,108.197884 822.914978,100.123810 
	C806.146729,93.672890 788.760864,88.618500 771.344116,84.127068 
	C756.992493,80.426064 742.148499,78.677460 727.603455,75.672707 
	C706.444641,71.301643 684.956055,69.937401 663.500854,69.201088 
	C640.121521,68.398750 616.683716,68.442390 593.390930,71.909653 
	C580.977112,73.757515 568.334290,74.169441 555.984619,76.319542 
	C540.695190,78.981468 525.475281,82.286308 510.458069,86.205055 
	C492.889587,90.789543 475.329865,95.646263 458.214874,101.661247 
	C441.856293,107.410416 425.929260,114.475487 410.081543,121.563667 
	C396.349548,127.705566 382.672974,134.112427 369.539062,141.421402 
	C341.142761,157.223816 313.619659,174.475357 287.703339,194.159927 
	C265.913452,210.710281 244.378067,227.626450 225.329666,247.334854 
	C209.422958,263.792755 193.453690,280.301575 178.935883,297.958496 
	C164.984604,314.926392 152.051132,332.874512 140.134979,351.337128 
	C124.238983,375.966003 110.965401,402.068024 100.066429,429.413605 
	C92.022949,449.594788 85.020935,470.052673 79.958786,491.122528 
	C76.645355,504.913849 73.861580,518.904663 72.028152,532.960999 
	C69.720680,550.651733 67.816376,568.474915 67.249405,586.289062 
	C66.749390,601.999512 67.693069,617.834961 69.151527,633.508057 
	C70.848450,651.743774 73.094170,669.993591 76.431664,687.990662 
	C79.047119,702.094360 82.694748,716.188599 87.651497,729.635376 
	C95.983261,752.238037 105.069382,774.620483 115.092445,796.521545 
	C121.809692,811.199158 130.280106,825.138794 138.737961,838.935425 
	C145.744003,850.363892 153.611267,861.298218 161.588882,872.087769 
	C169.656509,882.999084 178.381485,893.422791 186.658142,904.183472 
	C187.531647,905.319092 187.902573,907.439575 187.526901,908.840332 
	C185.169601,917.629639 181.887695,926.217102 180.137268,935.112488 
	C177.238907,949.841492 174.354492,964.680298 173.168350,979.608276 
	C172.030838,993.924316 171.819550,1008.558167 173.489288,1022.783813 
	C175.131805,1036.777588 179.245071,1050.545044 183.005478,1064.210571 
	C187.831909,1081.749878 196.589081,1097.554810 206.973206,1112.341187 
	C217.475037,1127.295044 229.567169,1140.861572 243.346985,1153.043823 
	C261.479340,1169.073853 281.290100,1182.558594 302.649780,1193.668823 
	C316.268372,1200.752563 330.449005,1206.820801 344.632385,1212.733276 
	C356.236938,1217.570679 367.974457,1222.424316 380.086792,1225.634277 
	C400.988922,1231.173584 422.115479,1236.036499 443.361237,1240.055176 
	C460.209564,1243.242188 477.319824,1245.621338 494.419556,1246.734497 
	C510.404663,1247.775269 526.528931,1246.678467 543.030640,1246.518188 
	C546.497314,1251.538696 550.327698,1257.512939 554.579956,1263.169922 
	C573.074463,1287.773804 591.283264,1312.609497 610.410645,1336.714355 
	C622.837280,1352.375000 636.323669,1367.242920 649.976257,1381.867676 
	C661.309448,1394.008179 673.248779,1405.636597 685.521912,1416.831543 
	C698.985352,1429.112427 713.138977,1440.636841 727.501221,1452.994873 
z"/>
<path fill="#282A28" opacity="1.000000" stroke="none" 
	d="
M727.246460,1452.742920 
	C713.138977,1440.636841 698.985352,1429.112427 685.521912,1416.831543 
	C673.248779,1405.636597 661.309448,1394.008179 649.976257,1381.867676 
	C636.323669,1367.242920 622.837280,1352.375000 610.410645,1336.714355 
	C591.283264,1312.609497 573.074463,1287.773804 554.579956,1263.169922 
	C550.327698,1257.512939 546.497314,1251.538696 543.030640,1246.518188 
	C526.528931,1246.678467 510.404663,1247.775269 494.419556,1246.734497 
	C477.319824,1245.621338 460.209564,1243.242188 443.361237,1240.055176 
	C422.115479,1236.036499 400.988922,1231.173584 380.086792,1225.634277 
	C367.974457,1222.424316 356.236938,1217.570679 344.632385,1212.733276 
	C330.449005,1206.820801 316.268372,1200.752563 302.649780,1193.668823 
	C281.290100,1182.558594 261.479340,1169.073853 243.346985,1153.043823 
	C229.567169,1140.861572 217.475037,1127.295044 206.973206,1112.341187 
	C196.589081,1097.554810 187.831909,1081.749878 183.005478,1064.210571 
	C179.245071,1050.545044 175.131805,1036.777588 173.489288,1022.783813 
	C171.819550,1008.558167 172.030838,993.924316 173.168350,979.608276 
	C174.354492,964.680298 177.238907,949.841492 180.137268,935.112488 
	C181.887695,926.217102 185.169601,917.629639 187.526901,908.840332 
	C187.902573,907.439575 187.531647,905.319092 186.658142,904.183472 
	C178.381485,893.422791 169.656509,882.999084 161.588882,872.087769 
	C153.611267,861.298218 145.744003,850.363892 138.737961,838.935425 
	C130.280106,825.138794 121.809692,811.199158 115.092445,796.521545 
	C105.069382,774.620483 95.983261,752.238037 87.651497,729.635376 
	C82.694748,716.188599 79.047119,702.094360 76.431664,687.990662 
	C73.094170,669.993591 70.848450,651.743774 69.151527,633.508057 
	C67.693069,617.834961 66.749390,601.999512 67.249405,586.289062 
	C67.816376,568.474915 69.720680,550.651733 72.028152,532.960999 
	C73.861580,518.904663 76.645355,504.913849 79.958786,491.122528 
	C85.020935,470.052673 92.022949,449.594788 100.066429,429.413605 
	C110.965401,402.068024 124.238983,375.966003 140.134979,351.337128 
	C152.051132,332.874512 164.984604,314.926392 178.935883,297.958496 
	C193.453690,280.301575 209.422958,263.792755 225.329666,247.334854 
	C244.378067,227.626450 265.913452,210.710281 287.703339,194.159927 
	C313.619659,174.475357 341.142761,157.223816 369.539062,141.421402 
	C382.672974,134.112427 396.349548,127.705566 410.081543,121.563667 
	C425.929260,114.475487 441.856293,107.410416 458.214874,101.661247 
	C475.329865,95.646263 492.889587,90.789543 510.458069,86.205055 
	C525.475281,82.286308 540.695190,78.981468 555.984619,76.319542 
	C568.334290,74.169441 580.977112,73.757515 593.390930,71.909653 
	C616.683716,68.442390 640.121521,68.398750 663.500854,69.201088 
	C684.956055,69.937401 706.444641,71.301643 727.603455,75.672707 
	C742.148499,78.677460 756.992493,80.426064 771.344116,84.127068 
	C788.760864,88.618500 806.146729,93.672890 822.914978,100.123810 
	C843.902283,108.197884 864.699585,117.045952 884.760254,127.180336 
	C911.819702,140.850449 937.168884,157.630951 960.306396,177.217056 
	C976.822510,191.198074 991.836243,206.959488 1007.423889,222.026245 
	C1010.139160,224.650879 1012.375000,227.771637 1013.786377,229.432449 
	C1017.683777,229.720169 1020.943604,229.037857 1022.257324,230.331573 
	C1023.441528,231.497803 1022.365967,234.837631 1022.537598,237.200638 
	C1022.633972,238.528107 1022.926758,240.033844 1023.659729,241.093658 
	C1034.395508,256.614838 1045.543701,271.862152 1055.896362,287.632385 
	C1061.607422,296.331818 1066.020752,305.883362 1071.014526,315.053314 
	C1071.873291,316.630249 1072.708252,318.220154 1073.919800,320.488708 
	C1077.482544,318.027985 1080.836182,315.962585 1083.895386,313.527405 
	C1086.883301,311.148987 1089.287842,311.578339 1091.695801,314.213531 
	C1094.662842,317.460693 1091.530884,319.086212 1089.727417,320.635468 
	C1086.222290,323.646667 1082.402710,326.291870 1078.679688,329.114227 
	C1079.850708,340.392853 1087.169922,346.224731 1096.746338,351.009216 
	C1107.093018,356.178528 1114.932739,364.561066 1121.623901,374.066711 
	C1131.481445,388.070496 1136.519897,403.866608 1139.577759,420.427368 
	C1140.445190,425.125793 1140.956787,429.969788 1140.916260,434.740967 
	C1140.795776,448.950165 1141.335693,463.276367 1139.675415,477.327332 
	C1138.232178,489.542053 1134.178101,501.452576 1131.199951,513.478271 
	C1130.525513,516.201660 1129.306763,518.803589 1128.792480,521.546509 
	C1128.594849,522.600586 1129.320679,524.404175 1130.207642,524.999695 
	C1146.394165,535.868103 1159.961548,549.522827 1170.755859,565.561707 
	C1182.075317,582.380981 1189.558228,600.966125 1194.405396,620.863831 
	C1198.177368,636.347961 1199.836548,651.979187 1199.641846,667.582825 
	C1199.453369,682.688660 1197.661865,698.058167 1194.247559,712.771912 
	C1189.442261,733.480347 1182.987427,753.854736 1176.316284,774.067688 
	C1169.736938,794.002075 1162.384888,813.707031 1154.615356,833.211243 
	C1151.152100,841.905151 1145.835083,849.860596 1141.071289,858.684753 
	C1172.045166,884.969421 1200.795166,913.754272 1224.861450,946.598572 
	C1240.424805,937.841431 1255.875488,930.802368 1273.450684,928.848572 
	C1289.226196,927.094910 1304.614014,927.981567 1319.532227,933.165222 
	C1334.223755,938.270142 1347.357910,946.167236 1358.634521,957.088379 
	C1376.736572,974.619690 1389.835083,995.371094 1398.002441,1019.073669 
	C1403.164551,1034.054565 1408.078125,1049.233521 1411.455444,1064.683716 
	C1414.477051,1078.505859 1415.476807,1092.797363 1416.923950,1106.927246 
	C1417.986572,1117.301025 1419.113770,1127.772949 1418.791260,1138.156982 
	C1418.412476,1150.350464 1416.636719,1162.512695 1415.217407,1174.659180 
	C1412.247559,1200.073364 1403.707397,1223.878906 1393.765747,1247.238770 
	C1391.782471,1251.898682 1389.214600,1256.309570 1386.504150,1261.646851 
	C1392.358643,1262.843994 1397.639526,1263.848022 1402.884399,1265.013672 
	C1411.576294,1266.945312 1420.334473,1268.662231 1428.897095,1271.066895 
	C1436.673950,1273.250854 1444.282593,1276.081299 1451.868164,1278.889404 
	C1470.473999,1285.776978 1487.534180,1295.529663 1502.526733,1308.463379 
	C1514.781494,1319.035278 1524.886230,1331.478882 1530.525024,1347.019775 
	C1534.969604,1359.269409 1536.148438,1371.690674 1533.719727,1384.604614 
	C1530.499268,1401.728760 1521.798584,1415.825562 1510.712646,1428.773682 
	C1495.089722,1447.021118 1476.210205,1461.214722 1455.084717,1472.309204 
	C1440.614136,1479.908936 1426.033203,1487.671631 1410.721436,1493.201294 
	C1391.974854,1499.971191 1372.606445,1505.343140 1353.146851,1509.718140 
	C1335.796387,1513.618896 1318.006348,1515.764648 1300.313477,1517.872559 
	C1288.324097,1519.300781 1276.127808,1520.263306 1264.094238,1519.759277 
	C1244.944824,1518.957031 1225.615601,1519.891846 1206.728394,1515.167480 
	C1191.536133,1511.367432 1175.953247,1508.908569 1161.046509,1504.246704 
	C1144.173584,1498.970093 1128.276245,1491.084106 1114.364502,1479.832764 
	C1111.069702,1477.167969 1108.589844,1477.263916 1104.835693,1479.522461 
	C1092.226929,1487.107056 1079.563965,1494.722778 1066.344971,1501.137817 
	C1053.109375,1507.561035 1039.452637,1513.388794 1025.481323,1517.947510 
	C1011.238831,1522.594727 996.511719,1526.028076 981.775269,1528.826172 
	C960.200195,1532.922974 938.249207,1534.282349 916.356018,1532.778687 
	C902.063782,1531.797119 887.853760,1529.155273 873.700867,1526.712402 
	C850.348022,1522.682007 828.368958,1514.169800 807.316345,1503.693237 
	C791.689819,1495.916992 776.718018,1486.711304 761.949341,1477.360718 
	C750.081726,1469.846802 738.956116,1461.160767 727.246460,1452.742920 
M1027.958374,261.435486 
	C1027.809692,261.120148 1027.576172,260.891144 1027.017700,260.111115 
	C1023.013977,254.850891 1019.010254,249.590668 1014.764587,244.012558 
	C1013.583923,245.482452 1012.803833,246.453613 1012.854126,246.391022 
	C1017.611755,251.676010 1022.061035,256.618439 1026.826050,261.914520 
	C1027.040283,262.158569 1027.296631,262.344910 1027.789307,262.990662 
	C1028.199707,263.317444 1028.610229,263.644226 1029.143921,264.416840 
	C1029.338257,264.362305 1029.532593,264.307800 1029.726929,264.253265 
	C1029.468506,264.186646 1029.210083,264.120026 1029.142090,263.435242 
	C1028.785889,262.930328 1028.429565,262.425415 1027.958374,261.435486 
M1197.166992,926.596436 
	C1196.876831,926.357239 1196.586792,926.117981 1196.296631,925.878784 
	C1196.537476,926.249268 1196.778320,926.619812 1197.095459,927.709351 
	C1201.270142,937.819641 1205.444824,947.929932 1209.736206,958.323059 
	C1212.223022,956.426941 1214.931763,954.361572 1218.189331,951.877747 
	C1212.499023,944.764771 1207.063599,937.865234 1201.488281,931.080627 
	C1200.217529,929.534363 1198.463379,928.385193 1197.166992,926.596436 
M989.547791,1033.480835 
	C978.505859,1033.642822 967.463867,1033.804077 956.421936,1033.967529 
	C954.606445,1033.994385 952.791077,1034.031616 950.176819,1034.127563 
	C925.218201,1027.958130 906.701050,1013.346252 893.803650,991.278442 
	C892.902466,989.736450 891.384460,987.731018 889.905701,987.495361 
	C884.006104,986.554993 880.985229,982.735840 878.908997,977.766724 
	C875.914795,970.600769 876.868103,963.583008 879.211426,956.337402 
	C881.408264,949.545044 882.628357,942.436829 884.505737,934.506958 
	C882.278076,935.133240 881.622864,935.209290 881.070007,935.488220 
	C829.399841,961.552124 777.725342,987.607666 726.125061,1013.809326 
	C724.330383,1014.720642 722.642029,1016.879944 721.979492,1018.824036 
	C713.860352,1042.646729 712.533691,1067.053833 716.506042,1091.777222 
	C722.469666,1128.894409 738.166992,1161.561523 763.013855,1189.608032 
	C795.811584,1226.629272 836.857483,1247.767090 886.435669,1251.604004 
	C887.860474,1251.714111 890.119934,1251.291016 890.708984,1250.330811 
	C895.539856,1242.455566 900.066467,1234.393677 904.531555,1226.655396 
	C896.719177,1225.787598 888.737915,1225.445312 880.980896,1223.944214 
	C849.045471,1217.764038 824.988464,1201.059937 811.597778,1170.646362 
	C808.221924,1162.978882 808.299927,1162.914673 814.490112,1157.594116 
	C836.134094,1138.990967 859.644165,1122.944458 883.795837,1107.874512 
	C959.702637,1060.511108 1038.720459,1019.010498 1120.967285,983.786255 
	C1138.184204,976.412659 1156.202637,970.909058 1173.859375,964.564941 
	C1177.042969,963.421082 1179.536865,963.980408 1181.564331,967.090149 
	C1183.882568,970.645874 1186.686035,973.885315 1189.553955,977.620728 
	C1193.128052,973.932312 1196.818359,970.342896 1200.199707,966.482910 
	C1201.064819,965.495483 1201.603149,963.426147 1201.188965,962.238953 
	C1197.746582,952.376465 1195.054443,942.076660 1190.252075,932.894226 
	C1166.491211,887.462524 1128.396118,859.994263 1079.533569,846.590759 
	C1077.965576,846.160645 1075.911621,846.558533 1074.348389,847.207031 
	C1064.058105,851.475098 1053.808960,855.846558 1043.611084,860.331238 
	C1037.645020,862.954895 1031.798462,865.850281 1025.532471,868.795288 
	C1030.395630,872.650146 1034.219727,876.156616 1034.162598,882.296082 
	C1034.143799,884.309082 1034.876587,886.780945 1036.156006,888.286011 
	C1053.557983,908.756348 1060.553955,932.402649 1057.560669,958.924561 
	C1055.507690,977.114136 1048.189941,993.222046 1035.978271,1006.868652 
	C1023.576965,1020.727173 1008.554260,1030.425903 989.547791,1033.480835 
M1409.271606,1123.201172 
	C1407.485229,1106.329224 1406.516235,1089.321411 1403.738525,1072.614258 
	C1398.315674,1039.995850 1387.883179,1009.123230 1368.568359,981.755615 
	C1336.420166,936.204102 1283.938232,923.993713 1235.188599,951.058899 
	C1208.918335,965.643982 1189.316040,987.122742 1173.524658,1012.310974 
	C1164.601440,1026.544189 1157.498779,1041.660645 1152.016235,1057.879150 
	C1166.622925,1059.995728 1179.520020,1065.565796 1191.486084,1073.402344 
	C1252.365234,1113.272095 1282.817261,1191.388550 1265.570557,1263.659912 
	C1257.690796,1296.679932 1243.245605,1326.879517 1225.539551,1355.643433 
	C1224.807129,1356.833130 1224.205566,1358.103271 1223.443237,1359.521851 
	C1224.370117,1359.761841 1224.816772,1359.935547 1225.277100,1359.988281 
	C1261.207397,1364.107300 1292.778809,1353.866699 1320.263672,1330.742432 
	C1363.633423,1294.253540 1389.569458,1247.136475 1402.862793,1192.726196 
	C1406.277954,1178.748047 1407.411865,1164.212769 1410.246460,1149.587891 
	C1410.428833,1141.387207 1410.623657,1133.186646 1410.744507,1124.985107 
	C1410.749023,1124.685181 1410.029541,1124.374390 1409.271606,1123.201172 
M226.701431,697.305359 
	C226.799698,692.486145 227.044617,687.664307 226.955490,682.848511 
	C226.864395,677.925537 226.445618,673.008606 226.052521,667.191101 
	C233.038025,549.475525 284.743164,455.691528 376.882721,384.665070 
	C370.674896,370.307709 363.795105,356.576416 358.717255,342.208282 
	C347.389404,310.155212 344.040863,277.419373 353.006683,244.026703 
	C365.233765,198.487778 406.201904,165.828766 453.380066,163.949142 
	C494.429779,162.313675 529.615479,176.933411 560.926697,202.343033 
	C567.101379,207.353897 572.746399,213.017471 579.516724,219.182281 
	C578.620300,216.829620 578.207764,215.594025 577.687805,214.405396 
	C571.387207,200.001678 566.661743,185.118393 564.482971,169.521652 
	C562.168091,152.950790 562.434265,136.498917 569.621155,121.011948 
	C581.206055,96.047729 602.879883,85.616432 628.537781,82.094131 
	C656.786926,78.216133 683.172546,85.402985 708.074341,98.205185 
	C746.964783,118.198952 775.974304,148.600601 798.356934,185.730942 
	C799.612549,187.813919 800.822449,189.924454 801.957947,191.859116 
	C865.780212,175.127884 932.288879,178.724396 1005.920166,241.608154 
	C1006.984741,240.412384 1008.053101,239.212418 1009.373413,237.729507 
	C1004.540955,232.346680 1000.036011,227.016052 995.207520,221.996704 
	C909.863892,133.278870 804.205444,88.868484 682.767700,79.220779 
	C646.110535,76.308525 609.543701,78.013710 573.090698,82.944580 
	C527.656860,89.090248 483.588837,100.509201 441.135681,117.671440 
	C352.438354,153.528503 274.909027,206.035110 209.491364,275.934082 
	C156.015320,333.073364 116.307007,398.441162 93.809227,473.805939 
	C75.007591,536.789185 70.758858,600.756287 81.405182,665.552246 
	C92.887093,735.433838 120.356430,798.841064 160.980804,856.636475 
	C199.549423,911.507202 247.473099,956.875854 302.562531,994.840454 
	C357.541931,1032.729248 417.118805,1061.198608 480.726868,1081.325562 
	C482.390320,1081.852051 484.711517,1082.487793 485.969055,1081.761597 
	C495.688721,1076.148926 505.221619,1070.212769 515.221436,1064.127930 
	C514.193176,1063.562500 513.817688,1063.275879 513.393799,1063.134399 
	C488.519684,1054.838745 464.570648,1044.405518 442.008850,1031.049316 
	C340.507996,970.962585 270.351105,886.045776 237.626205,771.762146 
	C230.729691,747.677734 227.151993,722.972290 226.701431,697.305359 
M647.779297,782.593201 
	C649.771301,782.453857 651.761475,782.273071 653.755676,782.181152 
	C701.615051,779.976624 748.942322,773.833008 795.328247,761.716858 
	C813.908936,756.863525 832.076050,750.427246 851.151367,744.487244 
	C830.241272,642.497620 786.393921,551.342590 737.842957,461.782562 
	C713.887512,473.931366 689.769104,475.441193 665.633301,464.737823 
	C641.645142,454.100006 626.615601,435.279327 619.678894,410.123779 
	C613.470215,416.578278 607.767700,422.853027 601.701599,428.753937 
	C572.330017,457.325287 537.301941,470.082245 496.487030,464.802887 
	C455.962402,459.561127 422.591797,440.624573 396.029419,409.693085 
	C391.110382,403.964966 386.752808,397.754608 382.047943,391.652527 
	C360.151947,407.724884 340.398102,425.775726 322.844025,446.166626 
	C275.092926,501.634674 246.266266,565.544983 236.899002,638.272034 
	C229.398087,696.508850 236.716644,752.780823 257.815247,807.421448 
	C279.057892,862.435181 311.147278,910.393433 352.589111,952.114563 
	C399.783875,999.627625 454.681976,1035.025879 518.449097,1056.272095 
	C523.055359,1057.806885 526.614258,1057.594971 530.934265,1055.039551 
	C609.287170,1008.692627 689.536438,965.856323 771.306030,925.861816 
	C868.738831,878.206177 967.746582,834.137268 1068.989868,795.148804 
	C1071.051758,794.354736 1073.285034,791.961975 1073.923706,789.855774 
	C1077.540039,777.932495 1081.033447,765.950745 1083.946411,753.839233 
	C1096.517578,701.572266 1103.500977,648.482178 1106.509155,594.858215 
	C1107.079834,584.686584 1106.590820,574.455566 1106.590820,563.011047 
	C1106.018433,564.233521 1105.867432,564.683044 1105.618530,565.069214 
	C1083.799194,598.910522 1055.689819,626.856262 1024.305054,651.715881 
	C985.647644,682.336060 943.461914,707.311340 899.445435,729.288452 
	C874.011414,741.987549 848.548645,754.662354 821.228577,763.042603 
	C764.496826,780.444580 706.199097,788.264771 647.149414,790.806335 
	C604.477905,792.643066 561.873108,790.968018 519.499695,785.031860 
	C480.328674,779.544312 442.012482,770.709473 404.979767,756.587646 
	C402.878632,755.786377 399.754456,756.118286 397.656494,757.099182 
	C378.075623,766.254333 358.614746,775.666077 339.120270,785.005920 
	C336.386993,786.315430 333.294495,788.181458 331.387665,784.332214 
	C329.321899,780.162170 332.890381,778.940430 335.800476,777.552795 
	C345.255737,773.044067 354.691010,768.493347 364.129272,763.949097 
	C372.891846,759.730164 381.648407,755.498901 389.472656,751.724121 
	C370.994446,741.152039 352.319733,730.752197 333.963562,719.817505 
	C327.133881,715.749084 321.027985,710.458130 314.636688,705.665161 
	C312.277802,703.896179 311.394348,701.254761 313.785400,699.383301 
	C315.034546,698.405579 317.764862,699.227051 319.808960,699.419250 
	C320.367065,699.471741 320.863464,700.186890 321.387054,700.599304 
	C344.818848,719.056030 370.614166,733.432922 398.115936,744.805603 
	C399.824646,745.512268 402.423584,745.485840 404.079956,744.694519 
	C469.048004,713.652649 533.953491,682.479797 598.870728,651.331604 
	C608.166382,646.871399 617.494812,642.479431 626.777222,637.991882 
	C629.409668,636.719238 632.073608,635.913269 633.657410,639.080017 
	C635.366211,642.496887 633.119873,644.301208 630.164978,645.475098 
	C629.548096,645.720154 628.975647,646.075195 628.374878,646.363037 
	C567.342468,675.616455 506.308167,704.865723 445.277252,734.122131 
	C434.391541,739.340454 423.519806,744.587830 411.938263,750.160217 
	C414.228882,751.086670 415.672394,751.732605 417.157440,752.262085 
	C458.939301,767.158691 502.103455,775.639343 546.161865,779.861633 
	C559.077759,781.099426 572.033691,781.919128 585.499817,783.548645 
	C588.657532,783.396118 591.815308,783.243652 595.880737,782.920959 
	C599.263794,782.984985 602.646912,783.049072 606.161194,783.459595 
	C606.429260,783.350037 606.697327,783.240417 607.894226,782.974670 
	C613.606750,783.023315 619.319275,783.072021 625.178223,783.466797 
	C625.442444,783.348145 625.706604,783.229492 626.877991,782.937805 
	C630.260498,782.987183 633.643005,783.036560 637.584412,783.661621 
	C640.732361,783.417725 643.880249,783.173828 647.779297,782.593201 
M569.232971,1269.257324 
	C598.345093,1310.183838 629.979248,1349.023438 665.127625,1384.942383 
	C702.560791,1423.196411 742.982544,1457.719360 789.641846,1484.438354 
	C873.138550,1532.251953 959.382629,1536.661133 1047.864380,1500.090942 
	C1097.342896,1479.640991 1139.043701,1447.962769 1174.963501,1408.542847 
	C1207.717407,1372.597290 1233.652710,1332.378296 1250.227417,1286.435303 
	C1266.839844,1240.387817 1266.920166,1194.732666 1246.025513,1149.928223 
	C1231.142212,1118.013428 1209.200806,1092.171875 1177.963989,1075.066040 
	C1166.118286,1068.579224 1153.583740,1064.802002 1139.636719,1066.526855 
	C1117.986328,1069.204346 1097.958862,1076.665649 1078.681763,1086.319214 
	C1036.135864,1107.625488 998.523804,1135.954224 965.045288,1169.492554 
	C931.460632,1203.137329 898.399780,1237.484985 886.685364,1286.046265 
	C886.361267,1287.389893 883.507568,1288.826782 881.806702,1288.860107 
	C880.849243,1288.879028 879.455505,1286.221924 878.971619,1284.562378 
	C878.593079,1283.264038 879.155762,1281.600342 879.569885,1280.177246 
	C881.505981,1273.524536 883.535645,1266.899048 885.612305,1259.996338 
	C826.476379,1254.687134 779.356506,1227.656006 744.842651,1179.829346 
	C710.500549,1132.240601 697.709473,1079.505981 712.022095,1021.193176 
	C711.000671,1021.587036 710.368530,1021.758545 709.804688,1022.058411 
	C642.925476,1057.627075 576.016479,1093.140015 509.240662,1128.901733 
	C503.671448,1131.884277 498.697632,1132.526978 493.172546,1129.911865 
	C478.554382,1122.992920 470.420715,1103.829590 475.748413,1088.407349 
	C422.575653,1071.375366 372.091187,1048.433472 324.573425,1019.064209 
	C277.064026,989.700073 234.062317,954.790100 195.541412,912.950378 
	C193.387161,920.578125 191.404831,927.065796 189.726151,933.631042 
	C181.517212,965.735840 178.192383,998.161926 183.544464,1031.136108 
	C190.531433,1074.182983 210.915283,1110.043701 242.191010,1139.956421 
	C277.053406,1173.299561 318.854797,1194.873657 363.857056,1210.808105 
	C401.847595,1224.259766 440.982147,1232.804443 481.087250,1236.624390 
	C501.662872,1238.584229 522.295227,1239.493286 542.912354,1236.367554 
	C544.753601,1236.088379 547.708374,1237.703491 548.878296,1239.343262 
	C555.742920,1248.964600 562.230652,1258.854980 569.232971,1269.257324 
M827.469727,428.975922 
	C884.958435,368.620514 942.447083,308.265106 999.957153,247.887283 
	C934.843384,191.718765 870.653992,181.310318 805.855652,199.867554 
	C806.456238,201.244644 807.047974,202.587433 807.628540,203.935074 
	C816.081177,223.555328 820.471191,243.892548 817.679932,265.301178 
	C814.606873,288.870789 803.268799,308.071991 784.911621,322.807953 
	C777.415344,328.825439 768.578735,333.173126 760.419739,338.238342 
	C790.193909,373.735504 785.143188,428.780975 744.930664,457.624237 
	C793.592407,547.243286 837.493347,638.777649 858.625854,739.829346 
	C866.449463,736.130554 874.135376,732.573486 881.755920,728.881531 
	C929.485352,705.757080 975.416748,679.637085 1017.255005,646.807190 
	C1052.238770,619.356018 1083.380615,588.317993 1105.524048,549.280823 
	C1129.733398,506.601593 1139.020264,461.107117 1128.788818,412.648621 
	C1121.164551,376.537781 1096.190308,350.982025 1058.840088,347.465393 
	C1054.690918,347.074738 1051.268188,347.583649 1047.712769,350.181244 
	C1029.435547,363.534363 1010.911987,376.549957 992.587158,389.838623 
	C990.185181,391.580475 988.497681,394.283142 986.344604,396.404083 
	C985.452637,397.282715 984.266663,397.937561 983.107117,398.452850 
	C981.242676,399.281311 979.021301,399.532867 977.412598,400.677399 
	C940.653564,426.830322 903.958435,453.073120 867.247131,479.293243 
	C864.266174,481.422333 861.434021,483.883636 858.174622,485.441162 
	C856.777161,486.109009 853.923584,485.411346 852.758362,484.278198 
	C852.011414,483.551849 852.721375,480.663696 853.551880,479.176697 
	C854.293762,477.848328 856.078125,477.086823 857.433716,476.118958 
	C896.583862,448.166992 935.729004,420.207947 974.910461,392.300079 
	C977.697449,390.315002 979.399292,388.060333 980.568115,384.637817 
	C982.532410,378.886078 984.927429,372.977936 988.493347,368.130188 
	C1002.510254,349.074799 1022.632141,341.435638 1045.362549,339.176819 
	C1046.991455,339.014923 1048.930786,339.176483 1050.167603,338.351196 
	C1055.658813,334.686920 1060.946289,330.717468 1066.240601,326.906647 
	C1049.404175,299.557892 1029.815796,275.091064 1006.301331,253.494705 
	C1005.202332,254.520264 1004.202515,255.361771 1003.306580,256.302307 
	C950.001831,312.263336 896.706909,368.233856 843.406372,424.198914 
	C838.121094,429.748383 832.966248,435.441071 827.373230,440.662750 
	C826.216003,441.743103 823.377930,441.023010 821.314514,441.132721 
	C821.380676,439.192749 820.820129,436.904144 821.660034,435.394684 
	C822.915649,433.138062 825.156677,431.429718 827.469727,428.975922 
M471.029327,172.301849 
	C461.232330,172.709381 451.267975,172.106018 441.666748,173.695892 
	C395.100281,181.406830 362.313080,217.396729 357.109009,265.245819 
	C354.352936,290.586700 357.832977,315.126892 366.171753,338.970612 
	C378.253662,373.517212 396.181763,404.340454 425.905365,426.885040 
	C456.612854,450.175873 491.108215,461.411102 529.758240,456.459900 
	C567.741150,451.594116 594.440002,428.825867 616.443726,399.358704 
	C617.401428,398.076111 617.625183,395.957794 617.568115,394.249542 
	C616.995728,377.107330 621.269470,361.342041 630.405151,346.812500 
	C631.540833,345.006195 632.371582,342.392487 632.027710,340.377502 
	C630.492554,331.382324 629.200989,322.244171 626.500732,313.568787 
	C619.205566,290.130585 606.536499,269.398651 592.542480,249.439087 
	C562.927795,207.200027 524.518250,178.707474 471.029327,172.301849 
M1483.433716,1442.951782 
	C1494.743164,1433.780151 1504.960571,1423.565796 1512.981079,1411.342773 
	C1526.188599,1391.214478 1530.819824,1369.921143 1520.995117,1346.944336 
	C1515.513428,1334.124512 1506.766357,1323.669922 1496.150146,1314.844238 
	C1463.479980,1287.684937 1424.566406,1276.318604 1383.419067,1270.776367 
	C1382.437866,1270.644287 1380.807739,1270.959839 1380.400635,1271.627686 
	C1377.210815,1276.860718 1374.049194,1282.130127 1371.260620,1287.583618 
	C1367.572632,1294.795776 1365.091064,1302.771118 1360.581909,1309.390381 
	C1345.964722,1330.848511 1325.775757,1346.428345 1303.980591,1359.910522 
	C1271.836670,1379.794678 1237.743530,1394.730225 1199.601807,1398.370850 
	C1195.564209,1398.756226 1193.042236,1400.297241 1190.547974,1403.266479 
	C1172.811768,1424.380005 1153.012939,1443.378662 1131.248779,1460.316772 
	C1126.727661,1463.835449 1122.134766,1467.261597 1116.899902,1471.243774 
	C1123.208496,1475.367920 1128.698364,1479.417358 1134.598755,1482.736816 
	C1164.809692,1499.733276 1197.885132,1506.797852 1231.964355,1509.640381 
	C1282.643066,1513.867310 1332.386963,1508.057617 1381.099243,1493.745605 
	C1417.923340,1482.926392 1452.565063,1467.471802 1483.433716,1442.951782 
M805.552124,280.911072 
	C813.834717,257.347900 811.182495,234.197708 801.819519,211.758652 
	C785.210815,171.954437 758.182495,140.366486 722.643066,116.351791 
	C694.856323,97.575760 664.446350,86.186241 630.097473,90.166466 
	C610.391174,92.449959 592.862427,99.767944 581.296936,116.796600 
	C570.793762,132.261063 570.094116,149.883087 572.558105,167.760590 
	C575.664917,190.301804 583.894104,211.103119 594.923096,230.824661 
	C613.012268,263.170959 635.573181,291.672058 666.809509,312.431702 
	C668.659973,313.661560 671.826355,314.125916 673.971497,313.513763 
	C701.916443,305.539215 727.299377,310.303589 750.024719,328.441223 
	C752.310242,330.265289 754.132141,330.487030 756.693970,329.542786 
	C780.134766,320.903564 795.837830,304.477631 805.552124,280.911072 
M1020.502747,1112.000854 
	C1027.253784,1107.435547 1033.871094,1102.656372 1040.778687,1098.341675 
	C1071.723511,1079.011841 1103.829956,1062.515625 1140.758301,1057.877319 
	C1142.134521,1057.704346 1143.898315,1055.807983 1144.417847,1054.338623 
	C1152.973755,1030.142578 1164.845703,1007.773621 1180.847290,987.671570 
	C1184.192749,983.468750 1180.887573,980.465637 1179.207397,977.386841 
	C1177.669922,974.569641 1175.745239,971.904541 1171.330688,973.594238 
	C1156.909668,979.113892 1142.148804,983.788025 1127.895752,989.696777 
	C1083.484497,1008.108032 1040.416870,1029.390625 997.940552,1051.863281 
	C946.911194,1078.861084 896.690735,1107.244507 849.575867,1140.766602 
	C838.764954,1148.458496 828.442993,1156.837646 817.984741,1164.832642 
	C819.381775,1167.907837 820.332458,1170.208984 821.458618,1172.420776 
	C822.589111,1174.641113 823.770142,1176.854736 825.142212,1178.930298 
	C842.498352,1205.186279 867.998169,1215.977295 898.403015,1217.805664 
	C907.194641,1218.334351 914.507874,1216.922485 918.624939,1208.165283 
	C918.899719,1207.580811 919.452576,1207.128296 919.869263,1206.608887 
	C948.813965,1170.532104 982.564209,1139.559204 1020.502747,1112.000854 
M829.023804,952.549622 
	C846.567627,943.699097 864.159729,934.941406 881.594360,925.880798 
	C883.780823,924.744507 885.922913,922.289124 886.748169,919.969177 
	C891.745850,905.920166 898.948242,893.241943 909.946045,883.131348 
	C936.359680,858.848633 966.726624,853.058838 1000.826599,863.792908 
	C1005.828125,865.367249 1012.442810,865.427124 1017.222229,863.494690 
	C1042.972412,853.083008 1068.388428,841.843262 1093.875488,830.787109 
	C1095.159546,830.230164 1096.881714,828.783020 1096.961548,827.649109 
	C1097.647827,817.897705 1095.027954,809.168579 1087.820801,802.238159 
	C1084.939087,799.467041 1081.753174,799.058960 1077.772827,800.671387 
	C1061.889404,807.105774 1045.813232,813.062561 1029.901733,819.429382 
	C954.610596,849.556091 880.336060,882.053772 807.463745,917.601257 
	C753.755676,943.800415 700.225830,970.487976 647.709167,998.972473 
	C592.995667,1028.648438 539.571838,1060.704834 485.701538,1091.922974 
	C483.744934,1093.056763 481.835693,1096.393555 481.942719,1098.604980 
	C482.443146,1108.942627 487.455994,1117.026733 496.508545,1122.062866 
	C498.487274,1123.163696 502.150391,1123.051758 504.195435,1121.943726 
	C530.397522,1107.745605 556.131653,1092.656128 582.592712,1078.968750 
	C664.372253,1036.666626 746.414001,994.871521 829.023804,952.549622 
M1103.659912,845.704712 
	C1104.591309,845.980225 1105.522583,846.255676 1106.483154,846.539734 
	C1107.244995,840.085144 1109.068359,838.874817 1114.518921,841.823059 
	C1120.912231,845.281311 1127.046631,849.218262 1133.799805,853.249817 
	C1136.910278,847.696899 1140.693359,842.473694 1142.947388,836.658020 
	C1153.400635,809.686218 1163.767090,782.670898 1173.525513,755.442200 
	C1185.699097,721.474243 1193.009033,686.664551 1190.027100,650.214478 
	C1187.073486,614.109558 1175.213989,581.770447 1150.746094,554.586731 
	C1142.861084,545.826538 1134.033936,538.123718 1123.964600,531.497498 
	C1119.033936,541.120239 1115.591553,549.959167 1115.330444,560.935913 
	C1114.606689,591.357605 1113.180176,621.890259 1109.550537,652.080688 
	C1105.604980,684.897339 1099.206543,717.441040 1093.187622,749.976013 
	C1090.631592,763.793213 1086.319214,777.285522 1083.034424,790.035278 
	C1087.223145,792.668579 1091.812622,794.418457 1094.804688,797.648132 
	C1103.668823,807.215881 1107.077515,818.875854 1104.802002,831.769043 
	C1104.419434,833.937134 1101.773682,836.130249 1099.640747,837.452637 
	C1097.229004,838.947998 1094.216187,839.474304 1090.461304,840.767639 
	C1095.295044,842.562378 1099.131714,843.986938 1103.659912,845.704712 
M740.274658,331.176422 
	C724.292480,320.343048 706.830750,316.096527 687.617493,318.930145 
	C645.879333,325.085815 617.965210,366.015442 627.568420,407.177094 
	C635.625854,441.712769 668.086426,466.869873 705.057983,463.128326 
	C732.251038,460.376343 752.505005,446.621368 764.014038,421.958313 
	C779.524658,388.720367 770.198730,354.298279 740.274658,331.176422 
M1043.750488,915.833069 
	C1042.426025,913.147156 1041.366455,910.287415 1039.735352,907.802673 
	C1025.632446,886.317200 1028.423462,886.866638 1003.725220,893.705566 
	C983.390259,899.336243 965.746765,910.544006 949.286011,923.478088 
	C929.480896,939.040039 912.045715,956.791016 900.396973,979.488464 
	C899.571106,981.097656 899.371704,983.777832 900.138000,985.345581 
	C921.341309,1028.723022 979.826111,1042.043945 1018.059021,1012.462341 
	C1021.164856,1010.059326 1021.602600,1007.895447 1020.488647,1004.454529 
	C1015.024841,987.577271 1005.090332,973.566284 992.817017,961.080627 
	C991.856628,960.103638 989.647400,960.003601 988.044861,960.076172 
	C983.750610,960.270691 979.420044,961.397705 975.194275,961.051453 
	C961.643311,959.941223 954.582520,948.153625 959.531555,935.516907 
	C964.913757,921.774048 982.247009,911.895447 996.777161,914.289734 
	C1010.542664,916.558105 1017.267639,929.308655 1010.620911,941.650024 
	C1007.854431,946.786621 1003.459473,951.046143 999.592896,955.974854 
	C1011.903625,969.043823 1022.583313,984.058777 1028.422974,1002.251892 
	C1047.700928,983.743591 1057.253540,947.622070 1043.750488,915.833069 
M956.275391,891.777283 
	C936.579224,903.173035 918.282715,916.369629 903.148560,933.545715 
	C895.273804,942.482971 888.715271,952.256104 885.553711,963.938171 
	C883.764526,970.549561 886.448975,977.406616 890.462463,978.575073 
	C922.216736,927.254028 964.708313,891.419006 1025.470215,880.172058 
	C1022.286377,875.325256 1017.239502,873.110840 1011.605042,873.231934 
	C1005.503967,873.363098 999.016602,873.503296 993.423035,875.586914 
	C981.008911,880.210999 969.048096,886.052246 956.275391,891.777283 
M967.568665,866.828796 
	C925.204895,868.402588 896.582092,902.288025 892.461792,933.175659 
	C918.181824,903.218140 950.080139,882.897949 985.947937,867.759705 
	C980.146667,867.439758 974.345459,867.119812 967.568665,866.828796 
M992.588257,949.232178 
	C998.058411,946.042053 1002.391724,941.878540 1004.292969,935.616333 
	C1006.092285,929.689392 1003.769470,925.119019 997.900940,923.074280 
	C987.005493,919.278076 970.644836,927.936951 966.883850,939.489929 
	C964.611206,946.471008 968.306396,952.838562 975.627258,952.794312 
	C981.068359,952.761414 986.497314,950.735535 992.588257,949.232178 
M1271.757446,1365.379517 
	C1271.118530,1365.563354 1270.485107,1365.769775 1269.839966,1365.927612 
	C1253.909424,1369.825439 1237.776855,1368.881836 1221.634521,1368.037109 
	C1219.992798,1367.951294 1217.570435,1368.207397 1216.756348,1369.264526 
	C1211.715942,1375.809326 1207.032349,1382.628906 1201.684448,1390.121826 
	C1230.458740,1386.571289 1256.097412,1376.693359 1280.473267,1362.938354 
	C1277.831909,1363.686035 1275.190674,1364.433838 1271.757446,1365.379517 
M634.172424,310.413361 
	C636.217529,318.248779 638.262634,326.084198 640.242432,333.669312 
	C646.928162,328.666992 653.782227,323.538666 660.044495,318.853149 
	C649.252625,309.625305 638.210327,300.183411 626.625000,290.277130 
	C629.208862,297.079254 631.594543,303.359711 634.172424,310.413361 
M1004.603088,371.081299 
	C1014.468384,364.000885 1024.333740,356.920502 1034.199097,349.840118 
	C1015.464966,353.782166 999.997864,362.218018 991.534973,380.326019 
	C995.700928,377.390259 999.866882,374.454498 1004.603088,371.081299 
M1068.537598,335.336121 
	C1066.871216,336.597870 1065.204712,337.859589 1062.961548,339.558014 
	C1066.740723,340.228394 1069.773315,340.766327 1072.805908,341.304291 
	C1073.073242,340.922333 1073.340576,340.540375 1073.607910,340.158447 
	C1072.101929,338.426575 1070.595947,336.694702 1068.537598,335.336121 
M1282.569580,1362.265991 
	C1282.571045,1362.433472 1282.572510,1362.600952 1282.573975,1362.768433 
	C1282.705688,1362.753174 1282.923828,1362.776367 1282.951172,1362.714844 
	C1283.009644,1362.583252 1282.969360,1362.407959 1282.569580,1362.265991 
M626.089539,289.492889 
	C626.315979,289.577209 626.542358,289.661530 626.768799,289.745880 
	C626.697083,289.503754 626.625305,289.261627 626.089539,289.492889 
z"/>
<path fill="#FDFDFD" opacity="1.000000" stroke="none" 
	d="
M584.971313,782.930481 
	C572.033691,781.919128 559.077759,781.099426 546.161865,779.861633 
	C502.103455,775.639343 458.939301,767.158691 417.157440,752.262085 
	C415.672394,751.732605 414.228882,751.086670 411.938263,750.160217 
	C423.519806,744.587830 434.391541,739.340454 445.277252,734.122131 
	C506.308167,704.865723 567.342468,675.616455 628.374878,646.363037 
	C628.975647,646.075195 629.548096,645.720154 630.164978,645.475098 
	C633.119873,644.301208 635.366211,642.496887 633.657410,639.080017 
	C632.073608,635.913269 629.409668,636.719238 626.777222,637.991882 
	C617.494812,642.479431 608.166382,646.871399 598.870728,651.331604 
	C533.953491,682.479797 469.048004,713.652649 404.079956,744.694519 
	C402.423584,745.485840 399.824646,745.512268 398.115936,744.805603 
	C370.614166,733.432922 344.818848,719.056030 321.387054,700.599304 
	C320.863464,700.186890 320.367065,699.471741 319.808960,699.419250 
	C317.764862,699.227051 315.034546,698.405579 313.785400,699.383301 
	C311.394348,701.254761 312.277802,703.896179 314.636688,705.665161 
	C321.027985,710.458130 327.133881,715.749084 333.963562,719.817505 
	C352.319733,730.752197 370.994446,741.152039 389.472656,751.724121 
	C381.648407,755.498901 372.891846,759.730164 364.129272,763.949097 
	C354.691010,768.493347 345.255737,773.044067 335.800476,777.552795 
	C332.890381,778.940430 329.321899,780.162170 331.387665,784.332214 
	C333.294495,788.181458 336.386993,786.315430 339.120270,785.005920 
	C358.614746,775.666077 378.075623,766.254333 397.656494,757.099182 
	C399.754456,756.118286 402.878632,755.786377 404.979767,756.587646 
	C442.012482,770.709473 480.328674,779.544312 519.499695,785.031860 
	C561.873108,790.968018 604.477905,792.643066 647.149414,790.806335 
	C706.199097,788.264771 764.496826,780.444580 821.228577,763.042603 
	C848.548645,754.662354 874.011414,741.987549 899.445435,729.288452 
	C943.461914,707.311340 985.647644,682.336060 1024.305054,651.715881 
	C1055.689819,626.856262 1083.799194,598.910522 1105.618530,565.069214 
	C1105.867432,564.683044 1106.018433,564.233521 1106.590820,563.011047 
	C1106.590820,574.455566 1107.079834,584.686584 1106.509155,594.858215 
	C1103.500977,648.482178 1096.517578,701.572266 1083.946411,753.839233 
	C1081.033447,765.950745 1077.540039,777.932495 1073.923706,789.855774 
	C1073.285034,791.961975 1071.051758,794.354736 1068.989868,795.148804 
	C967.746582,834.137268 868.738831,878.206177 771.306030,925.861816 
	C689.536438,965.856323 609.287170,1008.692627 530.934265,1055.039551 
	C526.614258,1057.594971 523.055359,1057.806885 518.449097,1056.272095 
	C454.681976,1035.025879 399.783875,999.627625 352.589111,952.114563 
	C311.147278,910.393433 279.057892,862.435181 257.815247,807.421448 
	C236.716644,752.780823 229.398087,696.508850 236.899002,638.272034 
	C246.266266,565.544983 275.092926,501.634674 322.844025,446.166626 
	C340.398102,425.775726 360.151947,407.724884 382.047943,391.652527 
	C386.752808,397.754608 391.110382,403.964966 396.029419,409.693085 
	C422.591797,440.624573 455.962402,459.561127 496.487030,464.802887 
	C537.301941,470.082245 572.330017,457.325287 601.701599,428.753937 
	C607.767700,422.853027 613.470215,416.578278 619.678894,410.123779 
	C626.615601,435.279327 641.645142,454.100006 665.633301,464.737823 
	C689.769104,475.441193 713.887512,473.931366 737.842957,461.782562 
	C786.393921,551.342590 830.241272,642.497620 851.151367,744.487244 
	C832.076050,750.427246 813.908936,756.863525 795.328247,761.716858 
	C748.942322,773.833008 701.615051,779.976624 653.755676,782.181152 
	C651.761475,782.273071 649.771301,782.453857 646.952576,782.692627 
	C643.092407,782.890015 640.058960,782.987915 637.025513,783.085938 
	C633.643005,783.036560 630.260498,782.987183 626.189087,782.975647 
	C625.500244,783.013489 625.031799,783.120728 625.031799,783.120728 
	C619.319275,783.072021 613.606750,783.023315 607.196960,782.995728 
	C606.499695,783.016785 606.029968,783.113159 606.029968,783.113159 
	C602.646912,783.049072 599.263794,782.984985 594.977295,782.942871 
	C591.039734,782.953430 588.005493,782.941956 584.971313,782.930481 
M363.813995,612.468811 
	C340.398590,615.625793 316.987091,618.812622 293.563110,621.904602 
	C290.396820,622.322571 287.757660,623.236816 288.227722,626.939331 
	C288.681732,630.515564 291.526550,630.524597 294.387634,630.142822 
	C305.104462,628.712952 315.834351,627.379333 326.546204,625.913696 
	C372.037506,619.689636 417.520660,613.406311 463.013367,607.192383 
	C507.187561,601.158508 551.369324,595.179932 595.549377,589.188354 
	C598.474121,588.791748 601.589294,588.380615 601.141113,584.427734 
	C600.695557,580.498474 597.646606,580.654663 594.656128,581.055420 
	C572.229675,584.061035 549.794861,587.005310 527.374512,590.055908 
	C473.142029,597.434875 418.915985,604.861328 363.813995,612.468811 
M566.997009,523.710938 
	C524.744812,521.859131 482.495178,519.945862 440.239685,518.172302 
	C395.151886,516.279846 350.058563,514.518677 304.967529,512.703125 
	C302.974304,512.622864 300.827728,512.092712 299.034637,512.661377 
	C297.626587,513.107849 295.656281,514.999207 295.734650,516.123169 
	C295.839172,517.621765 297.440216,519.378174 298.865753,520.305420 
	C299.960022,521.017090 301.775696,520.646667 303.272552,520.708618 
	C347.527588,522.540344 391.784729,524.321289 436.037598,526.204163 
	C486.613312,528.356140 537.185547,530.591309 587.758118,532.815979 
	C590.886536,532.953613 593.794983,532.419434 593.959229,528.770203 
	C594.114624,525.316467 591.331604,524.635864 588.404297,524.539490 
	C581.580200,524.314697 574.758667,524.012024 566.997009,523.710938 
z"/>
<path fill="#03A6D7" opacity="1.000000" stroke="none" 
	d="
M569.039185,1268.955933 
	C562.230652,1258.854980 555.742920,1248.964600 548.878296,1239.343262 
	C547.708374,1237.703491 544.753601,1236.088379 542.912354,1236.367554 
	C522.295227,1239.493286 501.662872,1238.584229 481.087250,1236.624390 
	C440.982147,1232.804443 401.847595,1224.259766 363.857056,1210.808105 
	C318.854797,1194.873657 277.053406,1173.299561 242.191010,1139.956421 
	C210.915283,1110.043701 190.531433,1074.182983 183.544464,1031.136108 
	C178.192383,998.161926 181.517212,965.735840 189.726151,933.631042 
	C191.404831,927.065796 193.387161,920.578125 195.541412,912.950378 
	C234.062317,954.790100 277.064026,989.700073 324.573425,1019.064209 
	C372.091187,1048.433472 422.575653,1071.375366 475.748413,1088.407349 
	C470.420715,1103.829590 478.554382,1122.992920 493.172546,1129.911865 
	C498.697632,1132.526978 503.671448,1131.884277 509.240662,1128.901733 
	C576.016479,1093.140015 642.925476,1057.627075 709.804688,1022.058411 
	C710.368530,1021.758545 711.000671,1021.587036 712.022095,1021.193176 
	C697.709473,1079.505981 710.500549,1132.240601 744.842651,1179.829346 
	C779.356506,1227.656006 826.476379,1254.687134 885.612305,1259.996338 
	C883.535645,1266.899048 881.505981,1273.524536 879.569885,1280.177246 
	C879.155762,1281.600342 878.593079,1283.264038 878.971619,1284.562378 
	C879.455505,1286.221924 880.849243,1288.879028 881.806702,1288.860107 
	C883.507568,1288.826782 886.361267,1287.389893 886.685364,1286.046265 
	C898.399780,1237.484985 931.460632,1203.137329 965.045288,1169.492554 
	C998.523804,1135.954224 1036.135864,1107.625488 1078.681763,1086.319214 
	C1097.958862,1076.665649 1117.986328,1069.204346 1139.636719,1066.526855 
	C1153.583740,1064.802002 1166.118286,1068.579224 1177.963989,1075.066040 
	C1209.200806,1092.171875 1231.142212,1118.013428 1246.025513,1149.928223 
	C1266.920166,1194.732666 1266.839844,1240.387817 1250.227417,1286.435303 
	C1233.652710,1332.378296 1207.717407,1372.597290 1174.963501,1408.542847 
	C1139.043701,1447.962769 1097.342896,1479.640991 1047.864380,1500.090942 
	C959.382629,1536.661133 873.138550,1532.251953 789.641846,1484.438354 
	C742.982544,1457.719360 702.560791,1423.196411 665.127625,1384.942383 
	C629.979248,1349.023438 598.345093,1310.183838 569.039185,1268.955933 
z"/>
<path fill="#03A6D7" opacity="1.000000" stroke="none" 
	d="
M226.161255,697.917725 
	C227.151993,722.972290 230.729691,747.677734 237.626205,771.762146 
	C270.351105,886.045776 340.507996,970.962585 442.008850,1031.049316 
	C464.570648,1044.405518 488.519684,1054.838745 513.393799,1063.134399 
	C513.817688,1063.275879 514.193176,1063.562500 515.221436,1064.127930 
	C505.221619,1070.212769 495.688721,1076.148926 485.969055,1081.761597 
	C484.711517,1082.487793 482.390320,1081.852051 480.726868,1081.325562 
	C417.118805,1061.198608 357.541931,1032.729248 302.562531,994.840454 
	C247.473099,956.875854 199.549423,911.507202 160.980804,856.636475 
	C120.356430,798.841064 92.887093,735.433838 81.405182,665.552246 
	C70.758858,600.756287 75.007591,536.789185 93.809227,473.805939 
	C116.307007,398.441162 156.015320,333.073364 209.491364,275.934082 
	C274.909027,206.035110 352.438354,153.528503 441.135681,117.671440 
	C483.588837,100.509201 527.656860,89.090248 573.090698,82.944580 
	C609.543701,78.013710 646.110535,76.308525 682.767700,79.220779 
	C804.205444,88.868484 909.863892,133.278870 995.207520,221.996704 
	C1000.036011,227.016052 1004.540955,232.346680 1009.373413,237.729507 
	C1008.053101,239.212418 1006.984741,240.412384 1005.920166,241.608154 
	C932.288879,178.724396 865.780212,175.127884 801.957947,191.859116 
	C800.822449,189.924454 799.612549,187.813919 798.356934,185.730942 
	C775.974304,148.600601 746.964783,118.198952 708.074341,98.205185 
	C683.172546,85.402985 656.786926,78.216133 628.537781,82.094131 
	C602.879883,85.616432 581.206055,96.047729 569.621155,121.011948 
	C562.434265,136.498917 562.168091,152.950790 564.482971,169.521652 
	C566.661743,185.118393 571.387207,200.001678 577.687805,214.405396 
	C578.207764,215.594025 578.620300,216.829620 579.516724,219.182281 
	C572.746399,213.017471 567.101379,207.353897 560.926697,202.343033 
	C529.615479,176.933411 494.429779,162.313675 453.380066,163.949142 
	C406.201904,165.828766 365.233765,198.487778 353.006683,244.026703 
	C344.040863,277.419373 347.389404,310.155212 358.717255,342.208282 
	C363.795105,356.576416 370.674896,370.307709 376.882721,384.665070 
	C284.743164,455.691528 233.038025,549.475525 226.054276,668.099060 
	C226.091095,678.643921 226.126175,688.280823 226.161255,697.917725 
z"/>
<path fill="#FDFDFD" opacity="1.000000" stroke="none" 
	d="
M827.224121,429.232056 
	C825.156677,431.429718 822.915649,433.138062 821.660034,435.394684 
	C820.820129,436.904144 821.380676,439.192749 821.314514,441.132721 
	C823.377930,441.023010 826.216003,441.743103 827.373230,440.662750 
	C832.966248,435.441071 838.121094,429.748383 843.406372,424.198914 
	C896.706909,368.233856 950.001831,312.263336 1003.306580,256.302307 
	C1004.202515,255.361771 1005.202332,254.520264 1006.301331,253.494705 
	C1029.815796,275.091064 1049.404175,299.557892 1066.240601,326.906647 
	C1060.946289,330.717468 1055.658813,334.686920 1050.167603,338.351196 
	C1048.930786,339.176483 1046.991455,339.014923 1045.362549,339.176819 
	C1022.632141,341.435638 1002.510254,349.074799 988.493347,368.130188 
	C984.927429,372.977936 982.532410,378.886078 980.568115,384.637817 
	C979.399292,388.060333 977.697449,390.315002 974.910461,392.300079 
	C935.729004,420.207947 896.583862,448.166992 857.433716,476.118958 
	C856.078125,477.086823 854.293762,477.848328 853.551880,479.176697 
	C852.721375,480.663696 852.011414,483.551849 852.758362,484.278198 
	C853.923584,485.411346 856.777161,486.109009 858.174622,485.441162 
	C861.434021,483.883636 864.266174,481.422333 867.247131,479.293243 
	C903.958435,453.073120 940.653564,426.830322 977.412598,400.677399 
	C979.021301,399.532867 981.242676,399.281311 983.107117,398.452850 
	C984.266663,397.937561 985.452637,397.282715 986.344604,396.404083 
	C988.497681,394.283142 990.185181,391.580475 992.587158,389.838623 
	C1010.911987,376.549957 1029.435547,363.534363 1047.712769,350.181244 
	C1051.268188,347.583649 1054.690918,347.074738 1058.840088,347.465393 
	C1096.190308,350.982025 1121.164551,376.537781 1128.788818,412.648621 
	C1139.020264,461.107117 1129.733398,506.601593 1105.524048,549.280823 
	C1083.380615,588.317993 1052.238770,619.356018 1017.255005,646.807190 
	C975.416748,679.637085 929.485352,705.757080 881.755920,728.881531 
	C874.135376,732.573486 866.449463,736.130554 858.625854,739.829346 
	C837.493347,638.777649 793.592407,547.243286 744.930664,457.624237 
	C785.143188,428.780975 790.193909,373.735504 760.419739,338.238342 
	C768.578735,333.173126 777.415344,328.825439 784.911621,322.807953 
	C803.268799,308.071991 814.606873,288.870789 817.679932,265.301178 
	C820.471191,243.892548 816.081177,223.555328 807.628540,203.935074 
	C807.047974,202.587433 806.456238,201.244644 805.855652,199.867554 
	C870.653992,181.310318 934.843384,191.718765 999.957153,247.887283 
	C942.447083,308.265106 884.958435,368.620514 827.224121,429.232056 
M1045.498901,469.006378 
	C1071.497681,458.382172 1097.493164,447.749908 1123.499878,437.144989 
	C1126.421143,435.953705 1129.484131,434.640198 1127.993164,430.773254 
	C1126.580078,427.108307 1123.539673,428.154602 1120.797607,429.273682 
	C1047.098877,459.352539 973.401123,489.434296 899.703552,519.516235 
	C892.474304,522.467041 885.149536,525.216125 878.098938,528.545593 
	C876.667480,529.221558 876.272461,532.092468 875.399658,533.951538 
	C877.223999,534.653992 879.005310,535.553528 880.893005,535.965820 
	C881.692383,536.140381 882.712830,535.284851 883.637024,534.907837 
	C937.341858,513.002991 991.046997,491.099152 1045.498901,469.006378 
z"/>
<path fill="#FDFDFD" opacity="1.000000" stroke="none" 
	d="
M1409.593872,1149.933350 
	C1407.411865,1164.212769 1406.277954,1178.748047 1402.862793,1192.726196 
	C1389.569458,1247.136475 1363.633423,1294.253540 1320.263672,1330.742432 
	C1292.778809,1353.866699 1261.207397,1364.107300 1225.277100,1359.988281 
	C1224.816772,1359.935547 1224.370117,1359.761841 1223.443237,1359.521851 
	C1224.205566,1358.103271 1224.807129,1356.833130 1225.539551,1355.643433 
	C1243.245605,1326.879517 1257.690796,1296.679932 1265.570557,1263.659912 
	C1282.817261,1191.388550 1252.365234,1113.272095 1191.486084,1073.402344 
	C1179.520020,1065.565796 1166.622925,1059.995728 1152.016235,1057.879150 
	C1157.498779,1041.660645 1164.601440,1026.544189 1173.524658,1012.310974 
	C1189.316040,987.122742 1208.918335,965.643982 1235.188599,951.058899 
	C1283.938232,923.993713 1336.420166,936.204102 1368.568359,981.755615 
	C1387.883179,1009.123230 1398.315674,1039.995850 1403.738525,1072.614258 
	C1406.516235,1089.321411 1407.485229,1106.329224 1409.355225,1124.030029 
	C1409.490601,1133.217163 1409.542236,1141.575195 1409.593872,1149.933350 
z"/>
<path fill="#FDFDFD" opacity="1.000000" stroke="none" 
	d="
M471.485779,172.353119 
	C524.518250,178.707474 562.927795,207.200027 592.542480,249.439087 
	C606.536499,269.398651 619.205566,290.130585 626.500732,313.568787 
	C629.200989,322.244171 630.492554,331.382324 632.027710,340.377502 
	C632.371582,342.392487 631.540833,345.006195 630.405151,346.812500 
	C621.269470,361.342041 616.995728,377.107330 617.568115,394.249542 
	C617.625183,395.957794 617.401428,398.076111 616.443726,399.358704 
	C594.440002,428.825867 567.741150,451.594116 529.758240,456.459900 
	C491.108215,461.411102 456.612854,450.175873 425.905365,426.885040 
	C396.181763,404.340454 378.253662,373.517212 366.171753,338.970612 
	C357.832977,315.126892 354.352936,290.586700 357.109009,265.245819 
	C362.313080,217.396729 395.100281,181.406830 441.666748,173.695892 
	C451.267975,172.106018 461.232330,172.709381 471.485779,172.353119 
M545.976868,295.499207 
	C545.992737,330.029236 542.094116,363.612885 523.116028,393.783203 
	C521.986694,395.578583 522.611206,399.413055 523.788940,401.540710 
	C526.816956,407.011108 533.787415,407.790436 538.675110,402.713684 
	C542.618896,398.617371 546.165039,393.642883 548.332581,388.413422 
	C560.946350,357.980988 565.917725,326.053589 564.708130,293.269592 
	C564.468262,286.769592 561.585205,280.121246 558.736206,274.102142 
	C557.791504,272.106293 553.101990,270.961426 550.176941,271.055450 
	C546.440002,271.175568 546.177307,274.968292 546.102722,278.009674 
	C545.968018,283.504089 546.009705,289.002808 545.976868,295.499207 
z"/>
<path fill="#FDFDFD" opacity="1.000000" stroke="none" 
	d="
M990.023010,1034.056396 
	C1008.554260,1030.425903 1023.576965,1020.727173 1035.978271,1006.868652 
	C1048.189941,993.222046 1055.507690,977.114136 1057.560669,958.924561 
	C1060.553955,932.402649 1053.557983,908.756348 1036.156006,888.286011 
	C1034.876587,886.780945 1034.143799,884.309082 1034.162598,882.296082 
	C1034.219727,876.156616 1030.395630,872.650146 1025.532471,868.795288 
	C1031.798462,865.850281 1037.645020,862.954895 1043.611084,860.331238 
	C1053.808960,855.846558 1064.058105,851.475098 1074.348389,847.207031 
	C1075.911621,846.558533 1077.965576,846.160645 1079.533569,846.590759 
	C1128.396118,859.994263 1166.491211,887.462524 1190.252075,932.894226 
	C1195.054443,942.076660 1197.746582,952.376465 1201.188965,962.238953 
	C1201.603149,963.426147 1201.064819,965.495483 1200.199707,966.482910 
	C1196.818359,970.342896 1193.128052,973.932312 1189.553955,977.620728 
	C1186.686035,973.885315 1183.882568,970.645874 1181.564331,967.090149 
	C1179.536865,963.980408 1177.042969,963.421082 1173.859375,964.564941 
	C1156.202637,970.909058 1138.184204,976.412659 1120.967285,983.786255 
	C1038.720459,1019.010498 959.702637,1060.511108 883.795837,1107.874512 
	C859.644165,1122.944458 836.134094,1138.990967 814.490112,1157.594116 
	C808.299927,1162.914673 808.221924,1162.978882 811.597778,1170.646362 
	C824.988464,1201.059937 849.045471,1217.764038 880.980896,1223.944214 
	C888.737915,1225.445312 896.719177,1225.787598 904.531555,1226.655396 
	C900.066467,1234.393677 895.539856,1242.455566 890.708984,1250.330811 
	C890.119934,1251.291016 887.860474,1251.714111 886.435669,1251.604004 
	C836.857483,1247.767090 795.811584,1226.629272 763.013855,1189.608032 
	C738.166992,1161.561523 722.469666,1128.894409 716.506042,1091.777222 
	C712.533691,1067.053833 713.860352,1042.646729 721.979492,1018.824036 
	C722.642029,1016.879944 724.330383,1014.720642 726.125061,1013.809326 
	C777.725342,987.607666 829.399841,961.552124 881.070007,935.488220 
	C881.622864,935.209290 882.278076,935.133240 884.505737,934.506958 
	C882.628357,942.436829 881.408264,949.545044 879.211426,956.337402 
	C876.868103,963.583008 875.914795,970.600769 878.908997,977.766724 
	C880.985229,982.735840 884.006104,986.554993 889.905701,987.495361 
	C891.384460,987.731018 892.902466,989.736450 893.803650,991.278442 
	C906.701050,1013.346252 925.218201,1027.958130 950.897949,1034.294189 
	C964.450256,1037.164795 977.257324,1037.575684 990.023010,1034.056396 
z"/>
<path fill="#FDFDFD" opacity="1.000000" stroke="none" 
	d="
M1483.166382,1443.184448 
	C1452.565063,1467.471802 1417.923340,1482.926392 1381.099243,1493.745605 
	C1332.386963,1508.057617 1282.643066,1513.867310 1231.964355,1509.640381 
	C1197.885132,1506.797852 1164.809692,1499.733276 1134.598755,1482.736816 
	C1128.698364,1479.417358 1123.208496,1475.367920 1116.899902,1471.243774 
	C1122.134766,1467.261597 1126.727661,1463.835449 1131.248779,1460.316772 
	C1153.012939,1443.378662 1172.811768,1424.380005 1190.547974,1403.266479 
	C1193.042236,1400.297241 1195.564209,1398.756226 1199.601807,1398.370850 
	C1237.743530,1394.730225 1271.836670,1379.794678 1303.980591,1359.910522 
	C1325.775757,1346.428345 1345.964722,1330.848511 1360.581909,1309.390381 
	C1365.091064,1302.771118 1367.572632,1294.795776 1371.260620,1287.583618 
	C1374.049194,1282.130127 1377.210815,1276.860718 1380.400635,1271.627686 
	C1380.807739,1270.959839 1382.437866,1270.644287 1383.419067,1270.776367 
	C1424.566406,1276.318604 1463.479980,1287.684937 1496.150146,1314.844238 
	C1506.766357,1323.669922 1515.513428,1334.124512 1520.995117,1346.944336 
	C1530.819824,1369.921143 1526.188599,1391.214478 1512.981079,1411.342773 
	C1504.960571,1423.565796 1494.743164,1433.780151 1483.166382,1443.184448 
z"/>
<path fill="#FDFDFD" opacity="1.000000" stroke="none" 
	d="
M805.373291,281.260315 
	C795.837830,304.477631 780.134766,320.903564 756.693970,329.542786 
	C754.132141,330.487030 752.310242,330.265289 750.024719,328.441223 
	C727.299377,310.303589 701.916443,305.539215 673.971497,313.513763 
	C671.826355,314.125916 668.659973,313.661560 666.809509,312.431702 
	C635.573181,291.672058 613.012268,263.170959 594.923096,230.824661 
	C583.894104,211.103119 575.664917,190.301804 572.558105,167.760590 
	C570.094116,149.883087 570.793762,132.261063 581.296936,116.796600 
	C592.862427,99.767944 610.391174,92.449959 630.097473,90.166466 
	C664.446350,86.186241 694.856323,97.575760 722.643066,116.351791 
	C758.182495,140.366486 785.210815,171.954437 801.819519,211.758652 
	C811.182495,234.197708 813.834717,257.347900 805.373291,281.260315 
M711.551819,263.097137 
	C690.928833,259.702759 672.239197,251.235489 654.126038,241.241043 
	C648.605591,238.194962 643.163452,234.966385 637.459961,232.304459 
	C632.351929,229.920456 628.268555,232.687042 628.723816,238.324463 
	C628.963135,241.288116 630.207336,244.588730 632.045837,246.905426 
	C634.685852,250.232117 637.864624,253.586624 641.549377,255.543106 
	C652.512329,261.364166 663.599609,267.084656 675.077271,271.768463 
	C688.926941,277.420258 703.313354,281.687958 718.413696,282.579071 
	C726.801514,283.074066 735.110535,282.500580 742.347656,277.556641 
	C745.761169,275.224731 747.557922,271.848175 746.103394,267.620972 
	C744.702942,263.550934 741.235291,264.013306 737.797424,263.986023 
	C729.337524,263.918884 720.880249,263.524506 711.551819,263.097137 
z"/>
<path fill="#FDFDFD" opacity="1.000000" stroke="none" 
	d="
M1020.208862,1112.205566 
	C982.564209,1139.559204 948.813965,1170.532104 919.869263,1206.608887 
	C919.452576,1207.128296 918.899719,1207.580811 918.624939,1208.165283 
	C914.507874,1216.922485 907.194641,1218.334351 898.403015,1217.805664 
	C867.998169,1215.977295 842.498352,1205.186279 825.142212,1178.930298 
	C823.770142,1176.854736 822.589111,1174.641113 821.458618,1172.420776 
	C820.332458,1170.208984 819.381775,1167.907837 817.984741,1164.832642 
	C828.442993,1156.837646 838.764954,1148.458496 849.575867,1140.766602 
	C896.690735,1107.244507 946.911194,1078.861084 997.940552,1051.863281 
	C1040.416870,1029.390625 1083.484497,1008.108032 1127.895752,989.696777 
	C1142.148804,983.788025 1156.909668,979.113892 1171.330688,973.594238 
	C1175.745239,971.904541 1177.669922,974.569641 1179.207397,977.386841 
	C1180.887573,980.465637 1184.192749,983.468750 1180.847290,987.671570 
	C1164.845703,1007.773621 1152.973755,1030.142578 1144.417847,1054.338623 
	C1143.898315,1055.807983 1142.134521,1057.704346 1140.758301,1057.877319 
	C1103.829956,1062.515625 1071.723511,1079.011841 1040.778687,1098.341675 
	C1033.871094,1102.656372 1027.253784,1107.435547 1020.208862,1112.205566 
z"/>
<path fill="#D00529" opacity="1.000000" stroke="none" 
	d="
M828.688904,952.714600 
	C746.414001,994.871521 664.372253,1036.666626 582.592712,1078.968750 
	C556.131653,1092.656128 530.397522,1107.745605 504.195435,1121.943726 
	C502.150391,1123.051758 498.487274,1123.163696 496.508545,1122.062866 
	C487.455994,1117.026733 482.443146,1108.942627 481.942719,1098.604980 
	C481.835693,1096.393555 483.744934,1093.056763 485.701538,1091.922974 
	C539.571838,1060.704834 592.995667,1028.648438 647.709167,998.972473 
	C700.225830,970.487976 753.755676,943.800415 807.463745,917.601257 
	C880.336060,882.053772 954.610596,849.556091 1029.901733,819.429382 
	C1045.813232,813.062561 1061.889404,807.105774 1077.772827,800.671387 
	C1081.753174,799.058960 1084.939087,799.467041 1087.820801,802.238159 
	C1095.027954,809.168579 1097.647827,817.897705 1096.961548,827.649109 
	C1096.881714,828.783020 1095.159546,830.230164 1093.875488,830.787109 
	C1068.388428,841.843262 1042.972412,853.083008 1017.222229,863.494690 
	C1012.442810,865.427124 1005.828125,865.367249 1000.826599,863.792908 
	C966.726624,853.058838 936.359680,858.848633 909.946045,883.131348 
	C898.948242,893.241943 891.745850,905.920166 886.748169,919.969177 
	C885.922913,922.289124 883.780823,924.744507 881.594360,925.880798 
	C864.159729,934.941406 846.567627,943.699097 828.688904,952.714600 
z"/>
<path fill="#03A5D6" opacity="1.000000" stroke="none" 
	d="
M1103.314209,845.558105 
	C1099.131714,843.986938 1095.295044,842.562378 1090.461304,840.767639 
	C1094.216187,839.474304 1097.229004,838.947998 1099.640747,837.452637 
	C1101.773682,836.130249 1104.419434,833.937134 1104.802002,831.769043 
	C1107.077515,818.875854 1103.668823,807.215881 1094.804688,797.648132 
	C1091.812622,794.418457 1087.223145,792.668579 1083.034424,790.035278 
	C1086.319214,777.285522 1090.631592,763.793213 1093.187622,749.976013 
	C1099.206543,717.441040 1105.604980,684.897339 1109.550537,652.080688 
	C1113.180176,621.890259 1114.606689,591.357605 1115.330444,560.935913 
	C1115.591553,549.959167 1119.033936,541.120239 1123.964600,531.497498 
	C1134.033936,538.123718 1142.861084,545.826538 1150.746094,554.586731 
	C1175.213989,581.770447 1187.073486,614.109558 1190.027100,650.214478 
	C1193.009033,686.664551 1185.699097,721.474243 1173.525513,755.442200 
	C1163.767090,782.670898 1153.400635,809.686218 1142.947388,836.658020 
	C1140.693359,842.473694 1136.910278,847.696899 1133.799805,853.249817 
	C1127.046631,849.218262 1120.912231,845.281311 1114.518921,841.823059 
	C1109.068359,838.874817 1107.244995,840.085144 1106.483154,846.539734 
	C1105.522583,846.255676 1104.591309,845.980225 1103.314209,845.558105 
z"/>
<path fill="#D00529" opacity="1.000000" stroke="none" 
	d="
M740.566528,331.387299 
	C770.198730,354.298279 779.524658,388.720367 764.014038,421.958313 
	C752.505005,446.621368 732.251038,460.376343 705.057983,463.128326 
	C668.086426,466.869873 635.625854,441.712769 627.568420,407.177094 
	C617.965210,366.015442 645.879333,325.085815 687.617493,318.930145 
	C706.830750,316.096527 724.292480,320.343048 740.566528,331.387299 
M714.312073,369.644745 
	C712.525635,349.793640 691.292969,338.979218 674.924316,349.583405 
	C664.415222,356.391602 660.264587,369.200439 664.864624,380.627533 
	C669.540100,392.241943 681.307312,398.816467 693.368713,396.553223 
	C705.914734,394.199097 714.087402,384.065552 714.312073,369.644745 
z"/>
<path fill="#F8DF36" opacity="1.000000" stroke="none" 
	d="
M1043.852783,916.204041 
	C1057.253540,947.622070 1047.700928,983.743591 1028.422974,1002.251892 
	C1022.583313,984.058777 1011.903625,969.043823 999.592896,955.974854 
	C1003.459473,951.046143 1007.854431,946.786621 1010.620911,941.650024 
	C1017.267639,929.308655 1010.542664,916.558105 996.777161,914.289734 
	C982.247009,911.895447 964.913757,921.774048 959.531555,935.516907 
	C954.582520,948.153625 961.643311,959.941223 975.194275,961.051453 
	C979.420044,961.397705 983.750610,960.270691 988.044861,960.076172 
	C989.647400,960.003601 991.856628,960.103638 992.817017,961.080627 
	C1005.090332,973.566284 1015.024841,987.577271 1020.488647,1004.454529 
	C1021.602600,1007.895447 1021.164856,1010.059326 1018.059021,1012.462341 
	C979.826111,1042.043945 921.341309,1028.723022 900.138000,985.345581 
	C899.371704,983.777832 899.571106,981.097656 900.396973,979.488464 
	C912.045715,956.791016 929.480896,939.040039 949.286011,923.478088 
	C965.746765,910.544006 983.390259,899.336243 1003.725220,893.705566 
	C1028.423462,886.866638 1025.632446,886.317200 1039.735352,907.802673 
	C1041.366455,910.287415 1042.426025,913.147156 1043.852783,916.204041 
z"/>
<path fill="#F5DD36" opacity="1.000000" stroke="none" 
	d="
M956.588989,891.587280 
	C969.048096,886.052246 981.008911,880.210999 993.423035,875.586914 
	C999.016602,873.503296 1005.503967,873.363098 1011.605042,873.231934 
	C1017.239502,873.110840 1022.286377,875.325256 1025.470215,880.172058 
	C964.708313,891.419006 922.216736,927.254028 890.462463,978.575073 
	C886.448975,977.406616 883.764526,970.549561 885.553711,963.938171 
	C888.715271,952.256104 895.273804,942.482971 903.148560,933.545715 
	C918.282715,916.369629 936.579224,903.173035 956.588989,891.587280 
z"/>
<path fill="#F5DD36" opacity="1.000000" stroke="none" 
	d="
M968.056396,866.814331 
	C974.345459,867.119812 980.146667,867.439758 985.947937,867.759705 
	C950.080139,882.897949 918.181824,903.218140 892.461792,933.175659 
	C896.582092,902.288025 925.204895,868.402588 968.056396,866.814331 
z"/>
<path fill="#827366" opacity="1.000000" stroke="none" 
	d="
M992.259949,949.414795 
	C986.497314,950.735535 981.068359,952.761414 975.627258,952.794312 
	C968.306396,952.838562 964.611206,946.471008 966.883850,939.489929 
	C970.644836,927.936951 987.005493,919.278076 997.900940,923.074280 
	C1003.769470,925.119019 1006.092285,929.689392 1004.292969,935.616333 
	C1002.391724,941.878540 998.058411,946.042053 992.259949,949.414795 
z"/>
<path fill="#06A3D3" opacity="1.000000" stroke="none" 
	d="
M1272.153320,1365.280518 
	C1275.190674,1364.433838 1277.831909,1363.686035 1280.473267,1362.938354 
	C1256.097412,1376.693359 1230.458740,1386.571289 1201.684448,1390.121826 
	C1207.032349,1382.628906 1211.715942,1375.809326 1216.756348,1369.264526 
	C1217.570435,1368.207397 1219.992798,1367.951294 1221.634521,1368.037109 
	C1237.776855,1368.881836 1253.909424,1369.825439 1269.839966,1365.927612 
	C1270.485107,1365.769775 1271.118530,1365.563354 1272.153320,1365.280518 
z"/>
<path fill="#F7F7F7" opacity="1.000000" stroke="none" 
	d="
M634.076355,310.026764 
	C631.594543,303.359711 629.208862,297.079254 626.625000,290.277130 
	C638.210327,300.183411 649.252625,309.625305 660.044495,318.853149 
	C653.782227,323.538666 646.928162,328.666992 640.242432,333.669312 
	C638.262634,326.084198 636.217529,318.248779 634.076355,310.026764 
z"/>
<path fill="#F2F2F2" opacity="1.000000" stroke="none" 
	d="
M1004.317993,371.300049 
	C999.866882,374.454498 995.700928,377.390259 991.534973,380.326019 
	C999.997864,362.218018 1015.464966,353.782166 1034.199097,349.840118 
	C1024.333740,356.920502 1014.468384,364.000885 1004.317993,371.300049 
z"/>
<path fill="#099FCE" opacity="1.000000" stroke="none" 
	d="
M1196.931763,927.053223 
	C1198.463379,928.385193 1200.217529,929.534363 1201.488281,931.080627 
	C1207.063599,937.865234 1212.499023,944.764771 1218.189331,951.877747 
	C1214.931763,954.361572 1212.223022,956.426941 1209.736206,958.323059 
	C1205.444824,947.929932 1201.270142,937.819641 1197.035400,927.365356 
	C1196.975220,927.021362 1196.931763,927.053223 1196.931763,927.053223 
z"/>
<path fill="#1C1E1C" opacity="1.000000" stroke="none" 
	d="
M989.785400,1033.768555 
	C977.257324,1037.575684 964.450256,1037.164795 951.297363,1034.262451 
	C952.791077,1034.031616 954.606445,1033.994385 956.421936,1033.967529 
	C967.463867,1033.804077 978.505859,1033.642822 989.785400,1033.768555 
z"/>
<path fill="#0F98C3" opacity="1.000000" stroke="none" 
	d="
M1026.510254,261.560852 
	C1022.061035,256.618439 1017.611755,251.676010 1012.854126,246.391022 
	C1012.803833,246.453613 1013.583923,245.482452 1014.764587,244.012558 
	C1019.010254,249.590668 1023.013977,254.850891 1026.943237,260.626160 
	C1026.749268,261.281036 1026.629883,261.420929 1026.510254,261.560852 
z"/>
<path fill="#ECECEC" opacity="1.000000" stroke="none" 
	d="
M1068.813843,335.149475 
	C1070.595947,336.694702 1072.101929,338.426575 1073.607910,340.158447 
	C1073.340576,340.540375 1073.073242,340.922333 1072.805908,341.304291 
	C1069.773315,340.766327 1066.740723,340.228394 1062.961548,339.558014 
	C1065.204712,337.859589 1066.871216,336.597870 1068.813843,335.149475 
z"/>
<path fill="#060906" opacity="1.000000" stroke="none" 
	d="
M1409.920166,1149.760620 
	C1409.542236,1141.575195 1409.490601,1133.217163 1409.543213,1124.463867 
	C1410.029541,1124.374390 1410.749023,1124.685181 1410.744507,1124.985107 
	C1410.623657,1133.186646 1410.428833,1141.387207 1409.920166,1149.760620 
z"/>
<path fill="#290600" opacity="1.000000" stroke="none" 
	d="
M226.431335,697.611572 
	C226.126175,688.280823 226.091095,678.643921 226.113159,668.547974 
	C226.445618,673.008606 226.864395,677.925537 226.955490,682.848511 
	C227.044617,687.664307 226.799698,692.486145 226.431335,697.611572 
z"/>
<path fill="#020302" opacity="1.000000" stroke="none" 
	d="
M585.235596,783.239563 
	C588.005493,782.941956 591.039734,782.953430 594.523438,783.027954 
	C591.815308,783.243652 588.657532,783.396118 585.235596,783.239563 
z"/>
<path fill="#020302" opacity="1.000000" stroke="none" 
	d="
M637.304932,783.373779 
	C640.058960,782.987915 643.092407,782.890015 646.577026,782.860962 
	C643.880249,783.173828 640.732361,783.417725 637.304932,783.373779 
z"/>
<path fill="#099FCE" opacity="1.000000" stroke="none" 
	d="
M1196.997192,927.005859 
	C1196.778320,926.619812 1196.537476,926.249268 1196.296631,925.878784 
	C1196.586792,926.117981 1196.876831,926.357239 1197.049316,926.824829 
	C1196.931763,927.053223 1196.975220,927.021362 1196.997192,927.005859 
z"/>
<path fill="#0F98C3" opacity="1.000000" stroke="none" 
	d="
M1029.020630,263.971039 
	C1028.610229,263.644226 1028.199707,263.317444 1027.811279,262.593567 
	C1027.833374,262.196442 1028.073242,261.920532 1028.073242,261.920532 
	C1028.429565,262.425415 1028.785889,262.930328 1029.064453,263.724060 
	C1028.986816,264.012848 1029.020630,263.971039 1029.020630,263.971039 
z"/>
<path fill="#06A3D3" opacity="1.000000" stroke="none" 
	d="
M1282.769531,1362.258301 
	C1282.969360,1362.407959 1283.009644,1362.583252 1282.951172,1362.714844 
	C1282.923828,1362.776367 1282.705688,1362.753174 1282.573975,1362.768433 
	C1282.572510,1362.600952 1282.571045,1362.433472 1282.769531,1362.258301 
z"/>
<path fill="#020302" opacity="1.000000" stroke="none" 
	d="
M606.095581,783.286377 
	C606.029968,783.113159 606.499695,783.016785 606.732544,783.073853 
	C606.697327,783.240417 606.429260,783.350037 606.095581,783.286377 
z"/>
<path fill="#020302" opacity="1.000000" stroke="none" 
	d="
M625.104980,783.293762 
	C625.031799,783.120728 625.500244,783.013489 625.735535,783.062195 
	C625.706604,783.229492 625.442444,783.348145 625.104980,783.293762 
z"/>
<path fill="#F7F7F7" opacity="1.000000" stroke="none" 
	d="
M626.321533,289.256195 
	C626.625305,289.261627 626.697083,289.503754 626.768799,289.745880 
	C626.542358,289.661530 626.315979,289.577209 626.321533,289.256195 
z"/>
<path fill="#0F98C3" opacity="1.000000" stroke="none" 
	d="
M1028.969238,264.033142 
	C1029.210083,264.120026 1029.468506,264.186646 1029.726929,264.253265 
	C1029.532593,264.307800 1029.338257,264.362305 1029.082275,264.193939 
	C1029.020630,263.971039 1028.986816,264.012848 1028.969238,264.033142 
z"/>
<path fill="#0F98C3" opacity="1.000000" stroke="none" 
	d="
M1027.714111,262.334961 
	C1027.296631,262.344910 1027.040283,262.158569 1026.668213,261.737671 
	C1026.629883,261.420929 1026.749268,261.281036 1027.063477,260.944824 
	C1027.576172,260.891144 1027.809692,261.120148 1028.015869,261.678009 
	C1028.073242,261.920532 1027.833374,262.196442 1027.714111,262.334961 
z"/>
<path fill="#282A28" opacity="1.000000" stroke="none" 
	d="
M364.250671,612.368713 
	C418.915985,604.861328 473.142029,597.434875 527.374512,590.055908 
	C549.794861,587.005310 572.229675,584.061035 594.656128,581.055420 
	C597.646606,580.654663 600.695557,580.498474 601.141113,584.427734 
	C601.589294,588.380615 598.474121,588.791748 595.549377,589.188354 
	C551.369324,595.179932 507.187561,601.158508 463.013367,607.192383 
	C417.520660,613.406311 372.037506,619.689636 326.546204,625.913696 
	C315.834351,627.379333 305.104462,628.712952 294.387634,630.142822 
	C291.526550,630.524597 288.681732,630.515564 288.227722,626.939331 
	C287.757660,623.236816 290.396820,622.322571 293.563110,621.904602 
	C316.987091,618.812622 340.398590,615.625793 364.250671,612.368713 
z"/>
<path fill="#292B29" opacity="1.000000" stroke="none" 
	d="
M567.466553,523.725891 
	C574.758667,524.012024 581.580200,524.314697 588.404297,524.539490 
	C591.331604,524.635864 594.114624,525.316467 593.959229,528.770203 
	C593.794983,532.419434 590.886536,532.953613 587.758118,532.815979 
	C537.185547,530.591309 486.613312,528.356140 436.037598,526.204163 
	C391.784729,524.321289 347.527588,522.540344 303.272552,520.708618 
	C301.775696,520.646667 299.960022,521.017090 298.865753,520.305420 
	C297.440216,519.378174 295.839172,517.621765 295.734650,516.123169 
	C295.656281,514.999207 297.626587,513.107849 299.034637,512.661377 
	C300.827728,512.092712 302.974304,512.622864 304.967529,512.703125 
	C350.058563,514.518677 395.151886,516.279846 440.239685,518.172302 
	C482.495178,519.945862 524.744812,521.859131 567.466553,523.725891 
z"/>
<path fill="#282A28" opacity="1.000000" stroke="none" 
	d="
M1045.125488,469.100830 
	C991.046997,491.099152 937.341858,513.002991 883.637024,534.907837 
	C882.712830,535.284851 881.692383,536.140381 880.893005,535.965820 
	C879.005310,535.553528 877.223999,534.653992 875.399658,533.951538 
	C876.272461,532.092468 876.667480,529.221558 878.098938,528.545593 
	C885.149536,525.216125 892.474304,522.467041 899.703552,519.516235 
	C973.401123,489.434296 1047.098877,459.352539 1120.797607,429.273682 
	C1123.539673,428.154602 1126.580078,427.108307 1127.993164,430.773254 
	C1129.484131,434.640198 1126.421143,435.953705 1123.499878,437.144989 
	C1097.493164,447.749908 1071.497681,458.382172 1045.125488,469.100830 
z"/>
<path fill="#282A28" opacity="1.000000" stroke="none" 
	d="
M545.977295,294.999451 
	C546.009705,289.002808 545.968018,283.504089 546.102722,278.009674 
	C546.177307,274.968292 546.440002,271.175568 550.176941,271.055450 
	C553.101990,270.961426 557.791504,272.106293 558.736206,274.102142 
	C561.585205,280.121246 564.468262,286.769592 564.708130,293.269592 
	C565.917725,326.053589 560.946350,357.980988 548.332581,388.413422 
	C546.165039,393.642883 542.618896,398.617371 538.675110,402.713684 
	C533.787415,407.790436 526.816956,407.011108 523.788940,401.540710 
	C522.611206,399.413055 521.986694,395.578583 523.116028,393.783203 
	C542.094116,363.612885 545.992737,330.029236 545.977295,294.999451 
z"/>
<path fill="#282A28" opacity="1.000000" stroke="none" 
	d="
M711.986816,263.179443 
	C720.880249,263.524506 729.337524,263.918884 737.797424,263.986023 
	C741.235291,264.013306 744.702942,263.550934 746.103394,267.620972 
	C747.557922,271.848175 745.761169,275.224731 742.347656,277.556641 
	C735.110535,282.500580 726.801514,283.074066 718.413696,282.579071 
	C703.313354,281.687958 688.926941,277.420258 675.077271,271.768463 
	C663.599609,267.084656 652.512329,261.364166 641.549377,255.543106 
	C637.864624,253.586624 634.685852,250.232117 632.045837,246.905426 
	C630.207336,244.588730 628.963135,241.288116 628.723816,238.324463 
	C628.268555,232.687042 632.351929,229.920456 637.459961,232.304459 
	C643.163452,234.966385 648.605591,238.194962 654.126038,241.241043 
	C672.239197,251.235489 690.928833,259.702759 711.986816,263.179443 
z"/>
<path fill="#FDFBFB" opacity="1.000000" stroke="none" 
	d="
M714.319519,370.105652 
	C714.087402,384.065552 705.914734,394.199097 693.368713,396.553223 
	C681.307312,398.816467 669.540100,392.241943 664.864624,380.627533 
	C660.264587,369.200439 664.415222,356.391602 674.924316,349.583405 
	C691.292969,338.979218 712.525635,349.793640 714.319519,370.105652 
z"/>
</svg>